<svg viewBox="0 0 149 37" fill="none" xmlns="http://www.w3.org/2000/svg" version="1.1">
<path id="topMenuLogoTitle" d="M13.3647 22.8123V14.033H19.7976C21.3069 14.0375 22.2116 14.0525 22.511 14.0811C22.8099 14.1098 23.0985 14.2085 23.376 14.3799C23.708 14.582 23.9351 14.8584 24.0594 15.2141C24.1841 15.5672 24.2452 16.1229 24.2452 16.8828C24.2452 17.5215 24.2056 17.9888 24.1271 18.2896C24.0487 18.5905 23.9 18.8296 23.6816 19.0097C23.4479 19.2031 23.094 19.3367 22.62 19.4093C23.1791 19.4512 23.5788 19.6135 23.8236 19.8924C23.9636 20.0592 24.0528 20.2613 24.0924 20.4983C24.1292 20.7377 24.149 21.2357 24.149 21.9956V22.8123H21.5257V22.3425C21.5257 21.8528 21.508 21.5059 21.4712 21.2971C21.4341 21.0888 21.3684 20.9286 21.2701 20.8166C21.1719 20.7157 21.0364 20.6497 20.8638 20.6211C20.6912 20.5925 20.3287 20.5796 19.7782 20.5796H16.0277V22.8123H13.3647ZM16.0277 18.3863H19.7716C20.4249 18.373 20.8134 18.3623 20.9402 18.3511C21.0649 18.3403 21.1739 18.3075 21.2635 18.2502C21.3771 18.1776 21.458 18.0701 21.5059 17.9273C21.5517 17.7825 21.5761 17.565 21.5761 17.2733C21.5761 16.9878 21.5497 16.7728 21.4952 16.63C21.4427 16.4894 21.3511 16.3864 21.2177 16.3225C21.1235 16.2785 21.012 16.2545 20.8816 16.2458C20.7523 16.237 20.3786 16.2304 19.765 16.2258H16.0277V18.3863ZM26.7257 14.033H36.4025V16.0964H29.3493V17.3654H36.044V19.2952H29.3493V20.7025H36.4524V22.8123H26.7257V14.033ZM38.8523 14.033H48.5291V16.0964H41.4756V17.3654H48.1707V19.2952H41.4756V20.7025H48.5791V22.8123H38.8523V14.033ZM50.979 14.033H60.2144V16.0964H53.6415V17.7564H59.8931V19.7758H53.6415V22.8123H50.979V14.033ZM65.705 22.8123V14.033H73.9094V15.0626H66.869V17.8394H73.5947V18.8694H66.869V22.8123H65.705ZM85.088 22.8123L84.0528 20.9593H76.9865L75.9442 22.8123H74.6249L79.5792 14.033H81.4423L86.3812 22.8123H85.088ZM83.4957 19.9297L80.7758 15.0626H80.3088L77.5497 19.9297H83.4957ZM97.2101 19.8089H98.344C98.3134 20.6057 98.2676 21.1548 98.202 21.4553C98.0624 22.1076 97.6296 22.5094 96.9045 22.6583C96.3145 22.7791 95.2681 22.8385 93.7614 22.8385C91.8083 22.8385 90.4869 22.7704 89.8011 22.6322C89.1478 22.5006 88.7089 22.1558 88.4814 21.6005C88.2567 21.0452 88.1428 20.0326 88.1428 18.5598C88.1428 17.1592 88.2282 16.1404 88.3984 15.5058C88.604 14.7551 89.1305 14.3185 89.9799 14.1932C90.7995 14.0683 92.0007 14.0068 93.5818 14.0068C95.0914 14.0068 96.1749 14.0811 96.8257 14.2326C97.1515 14.3052 97.4306 14.448 97.6689 14.6588C97.9051 14.8717 98.0554 15.1174 98.1189 15.3963C98.1821 15.6577 98.2193 16.169 98.228 16.933H97.1469C97.1424 16.7836 97.1403 16.6828 97.1403 16.63C97.1403 16.2109 97.099 15.91 97.0181 15.732C96.9372 15.5544 96.7798 15.4182 96.5441 15.324C96.1138 15.1481 95.1067 15.0601 93.5252 15.0601C92.3764 15.0601 91.5155 15.0912 90.9391 15.1526C90.3647 15.2161 89.9889 15.3149 89.8139 15.4531C89.6458 15.5892 89.5236 15.8727 89.4447 16.303C89.3662 16.7309 89.327 17.3281 89.327 18.0921C89.327 18.4523 89.3419 18.9175 89.3728 19.4886C89.4013 20.0571 89.4319 20.4501 89.4625 20.6651C89.5083 21.0029 89.6152 21.249 89.7837 21.4025C89.9538 21.554 90.2181 21.6466 90.5807 21.6814C91.2426 21.7495 92.1861 21.7848 93.4162 21.7848C93.7919 21.7848 94.2833 21.7736 94.8903 21.7495C95.4977 21.7254 95.8867 21.7034 96.0527 21.6814C96.3756 21.6399 96.6184 21.5739 96.7757 21.4864C96.9326 21.3984 97.042 21.2669 97.1011 21.0888C97.1577 20.9353 97.1928 20.5091 97.2101 19.8089ZM100.217 14.033H110.143V15.0626H105.772V22.8123H104.608V15.0626H100.217V14.033ZM117.905 14.0068C119.399 14.0068 120.452 14.055 121.064 14.1513C121.675 14.2479 122.123 14.4347 122.405 14.7136C122.584 14.8891 122.717 15.0999 122.807 15.3415C122.896 15.5826 122.969 15.9229 123.019 16.3599C123.082 16.9131 123.115 17.6136 123.115 18.459C123.115 19.5388 123.065 20.358 122.964 20.9108C122.864 21.4665 122.691 21.8748 122.442 22.1317C122.186 22.406 121.765 22.5928 121.18 22.6936C120.592 22.7945 119.631 22.8451 118.296 22.8451C117.639 22.8451 116.911 22.8343 116.11 22.8123C115.31 22.7924 114.784 22.7704 114.533 22.7484C114.098 22.7069 113.755 22.6343 113.502 22.5355C113.25 22.4367 113.027 22.2832 112.831 22.0724C112.571 21.798 112.396 21.4138 112.309 20.9153C112.221 20.4169 112.178 19.5761 112.178 18.393C112.178 16.9969 112.274 16.0022 112.466 15.4162C112.695 14.7202 113.224 14.3119 114.048 14.1865C114.801 14.0703 116.088 14.011 117.905 14.0068ZM117.234 15.0601C116.014 15.0601 115.118 15.1087 114.545 15.2074C114.214 15.2647 113.973 15.3589 113.825 15.495C113.678 15.6291 113.576 15.8507 113.514 16.1536C113.416 16.6433 113.368 17.3592 113.368 18.3029C113.368 19.2732 113.395 19.9804 113.449 20.4236C113.502 20.8672 113.598 21.1656 113.739 21.315C113.851 21.4403 114.01 21.53 114.22 21.5851C114.428 21.642 114.76 21.6839 115.212 21.7142C115.959 21.7648 116.826 21.7914 117.815 21.7914C119.225 21.7914 120.247 21.7341 120.887 21.6179C121.391 21.5324 121.691 21.2336 121.785 20.722C121.883 20.1733 121.931 19.4271 121.931 18.483C121.931 17.3301 121.887 16.5159 121.802 16.0437C121.717 15.5656 121.387 15.2801 120.811 15.1896C120.474 15.1369 120.094 15.1045 119.672 15.0892C119.249 15.0734 118.436 15.0647 117.234 15.0601ZM125.814 22.8123V14.033H131.259C132.736 14.0504 133.677 14.0857 134.088 14.1425C134.809 14.2372 135.307 14.5621 135.584 15.1195C135.768 15.493 135.86 16.0134 135.86 16.6828C135.86 17.1878 135.831 17.5742 135.777 17.8373C135.722 18.1008 135.623 18.3116 135.482 18.4697C135.257 18.7246 134.903 18.9022 134.42 19.0055C134.796 19.069 135.095 19.2138 135.316 19.4421C135.482 19.6222 135.589 19.8376 135.637 20.0853C135.683 20.3335 135.707 20.8274 135.707 21.5652V22.8123H134.542V21.969C134.542 21.2536 134.527 20.7593 134.497 20.485C134.411 19.9276 134.099 19.6002 133.557 19.506C133.343 19.4774 133.153 19.4579 132.985 19.4512C132.815 19.4446 132.24 19.44 131.259 19.4359H126.978V22.8123H125.814ZM126.978 18.4062H131.259C132.393 18.4062 133.12 18.3909 133.442 18.3577C133.76 18.3249 134.02 18.2461 134.222 18.1162C134.52 17.9186 134.669 17.436 134.669 16.6633C134.669 16.0001 134.532 15.5672 134.254 15.3722C134.075 15.2427 133.793 15.1589 133.413 15.1195C133.031 15.0821 132.312 15.0626 131.259 15.0626H126.978V18.4062ZM137.499 14.033H139.074L143.292 18.2461L147.375 14.033H149L143.873 19.2226V22.8123H142.709V19.2226L137.499 14.033Z" fill="#FFFFFF"></path><path id="topMenuLogoDash" d="M1.07056 0L0.201416 0V36.8529H1.07056V0Z" fill="#FFFFFF"></path></svg>
